<svg xmlns="http://www.w3.org/2000/svg" width="6" height="10.03" viewBox="0 0 6 10.03"><defs><style>.cls-1{fill:#121212;fill-rule:evenodd}</style></defs><path id="Фигура_1_копия_6" data-name="Фигура 1 копия 6" class="cls-1" d="M1220.22 3198.96a.913.913 0 0 1-.13-.08c-.92-.96-1.84-1.93-2.76-2.89a.969.969 0 0 1-.01-1.45c.08-.08.16-.16.23-.24a.877.877 0 0 1 1.34 0l2.22 2.31c.52.54 1.03 1.08 1.55 1.62a1.1 1.1 0 0 1 0 1.54q-1.875 1.95-3.74 3.9a.884.884 0 0 1-1.39 0 5.78 5.78 0 0 1-.24-.25.96.96 0 0 1 0-1.38c.93-.97 1.87-1.94 2.8-2.91a.524.524 0 0 1 .11-.1c.01-.02.01-.05.02-.07z" transform="translate(-1217 -3194)"/></svg>