<svg xmlns="http://www.w3.org/2000/svg" width="5.969" height="10" viewBox="0 0 5.969 10"><defs><style>.cls-1{fill:#121212;fill-rule:evenodd}</style></defs><path id="Фигура_1_копия_7" data-name="Фигура 1 копия 7" class="cls-1" d="M978.781 3199.05a.621.621 0 0 1 .125.09c.923.96 1.845 1.92 2.767 2.87a.972.972 0 0 1 0 1.45l-.23.24a.875.875 0 0 1-1.338 0c-.74-.76-1.478-1.53-2.217-2.3l-1.551-1.62a1.078 1.078 0 0 1 0-1.53c1.247-1.3 2.494-2.59 3.741-3.89a.876.876 0 0 1 1.382 0c.08.08.16.16.24.25a.959.959 0 0 1 0 1.38c-.93.97-1.861 1.93-2.793 2.9a.73.73 0 0 1-.117.1z" transform="translate(-976.031 -3194.03)"/></svg>