<svg xmlns="http://www.w3.org/2000/svg" width="18.969" height="18.031" viewBox="0 0 18.969 18.031"><defs><style>.cls-1{fill:#c9cb20;fill-rule:evenodd}</style></defs><path id="Фигура_17" data-name="Фигура 17" class="cls-1" d="M969.5 668.793l-5.991.66a.573.573 0 0 0-.479.388.557.557 0 0 0 .159.589c1.781 1.616 4.457 4.035 4.457 4.035s-.735 3.52-1.221 5.868a.564.564 0 0 0 .834.6c2.1-1.184 5.239-2.966 5.239-2.966l5.236 2.968a.576.576 0 0 0 .615-.033.566.566 0 0 0 .222-.571l-1.218-5.869s2.676-2.419 4.456-4.031a.562.562 0 0 0-.318-.978c-2.4-.267-5.992-.663-5.992-.663l-2.483-5.46a.575.575 0 0 0-.516-.33.568.568 0 0 0-.516.333z" transform="translate(-963 -663)"/></svg>