<svg xmlns="http://www.w3.org/2000/svg" width="54.375" height="49.97" viewBox="0 0 54.375 49.97"><defs><style>.cls-1{fill:#c9cb20;fill-rule:evenodd}</style></defs><path id="Фигура_7" data-name="Фигура 7" class="cls-1" d="M469.106 2098.49h-3.757a.887.887 0 0 0-.881.89v13.29h-3.874v-10.46a.886.886 0 0 0-.88-.89H425.9a.886.886 0 0 0-.88.89v10.46h-3.874v-13.29a.887.887 0 0 0-.881-.89h-3.757a.886.886 0 0 0-.88.89v48.2a.886.886 0 0 0 .88.89h3.757a.887.887 0 0 0 .881-.89v-2.89h43.322v2.89a.887.887 0 0 0 .881.89h3.757a.886.886 0 0 0 .88-.89v-48.2a.886.886 0 0 0-.88-.89zm-19.783 12.17h9.51v2.01h-9.51v-2.01zm9.51-1.77h-9.51v-5.79h3.877v1a.881.881 0 1 0 1.761 0v-1h3.875v5.79zm-11.271 3.78h-9.51v-9.57h3.875v1a.88.88 0 1 0 1.76 0v-1h3.875v9.57zm-20.781-9.57h3.875v1a.88.88 0 1 0 1.76 0v-1h3.875v9.57h-9.51v-9.57zm37.687 11.34v13.35h-3.874v-10.46a.884.884 0 0 0-.88-.88H425.9a.884.884 0 0 0-.88.88v10.46h-3.874v-13.35h43.322zm-26.416 13.35v-9.57h3.875v1.01a.88.88 0 0 0 1.76 0v-1.01h3.875v9.57h-9.51zm-11.271 0v-2.01h9.51v2.01h-9.51zm4.755-7.68a.884.884 0 0 0 .88-.88v-1.01h3.875v5.79h-9.51v-5.79h3.875v1.01a.884.884 0 0 0 .88.88zm17.787-1.89h3.877v1.01a.881.881 0 0 0 1.761 0v-1.01h3.875v9.57h-9.51v-9.57zm-29.938 28.48h-2v-46.44h2v46.44zm12.151-11.46a.886.886 0 0 0 .88-.89v-1h3.875v9.57h-9.51v-9.57h3.875v1a.886.886 0 0 0 .88.89zm6.516-1.89h3.875v1a.88.88 0 1 0 1.76 0v-1h3.875v5.79h-9.51v-5.79zm0 7.56h9.51v2.01h-9.51v-2.01zm11.271 2.01v-9.57h3.877v1a.881.881 0 1 0 1.761 0v-1h3.875v9.57h-9.51zm11.271 0v-10.46a.886.886 0 0 0-.88-.89H425.9a.886.886 0 0 0-.88.89v10.46h-3.874v-13.36h43.322v13.36h-3.874zm7.631 3.78h-2v-46.44h2v46.44z" transform="translate(-415.625 -2098.5)"/></svg>