<svg xmlns="http://www.w3.org/2000/svg" width="59" height="49.44" viewBox="0 0 59 49.44"><defs><style>.cls-1{fill:#c9cb20;fill-rule:evenodd}</style></defs><path id="Фигура_8" data-name="Фигура 8" class="cls-1" d="M780.926 2126.61a1.2 1.2 0 0 1-.872.37 1.217 1.217 0 0 1-.865-.36 1.243 1.243 0 0 1-.007-1.75 1.259 1.259 0 0 0 .357-.88 1.211 1.211 0 1 0-2.421 0 18.428 18.428 0 0 1-3.857 11.33c-1.473 1.91-3.536 6.44-4.639 10.93h2.69a1.235 1.235 0 0 1 0 2.47h-11.384a1.23 1.23 0 0 1-1.229-1.27 29.858 29.858 0 0 0-.28-4.09l-.047-.4a24.148 24.148 0 0 1-9.762.68l-.761 2.61h.47a1.235 1.235 0 0 1 0 2.47h-13.093a1.235 1.235 0 0 1 0-2.47h3.138c.21-1.7.425-3.58.548-5.17-3.837-.97-6.784-1.95-9.961-6.11h-1.365c-.925 0-2.168-.45-2.839-2.54l-1.428-4.47a4.214 4.214 0 0 1 .251-3.73 4.145 4.145 0 0 1 3.319-1.67c1.26-.11 1.651-.24 2.266-2.52a14.023 14.023 0 0 1 6.891-8.95l.824-8.24a1.23 1.23 0 0 1 2.026-.81l6.226 5.43a27.89 27.89 0 0 1 5.929-1.62 5 5 0 0 1-.277-1.64 4.916 4.916 0 1 1 9.568 1.6 21.66 21.66 0 0 1 11.046 4.9 16.581 16.581 0 0 1 5.454 9.89 3.7 3.7 0 0 1 4.084 6.01zm-25.236-24.87a2.475 2.475 0 1 0 2.458 2.47 2.467 2.467 0 0 0-2.458-2.47zm3.049 6.35a4.882 4.882 0 0 1-6.062.03 25.9 25.9 0 0 0-7.3 1.92 1.238 1.238 0 0 1-1.288-.21l-5.007-4.36-.651 6.51a1.237 1.237 0 0 1-.658.98 11.616 11.616 0 0 0-6.242 7.73c-.709 2.63-1.625 4.1-4.432 4.34a1.932 1.932 0 0 0-1.48.58 2 2 0 0 0 .043 1.59l1.428 4.47a1.247 1.247 0 0 0 .5.82h1.981a1.227 1.227 0 0 1 .994.51c3.065 4.24 5.652 4.87 9.938 5.92a1.24 1.24 0 0 1 .936 1.27c-.094 1.74-.345 4.01-.594 6.06h4.447l1.276-4.37a1.238 1.238 0 0 1 1.435-.87c3.254.7 6.581.46 11.125-.8a1.2 1.2 0 0 1 1.035.18 1.234 1.234 0 0 1 .518.92c.039.54.109 1.13.183 1.77.114.98.238 2.05.284 3.17h4.952c1.055-4.6 3.261-9.9 5.222-12.45a15.941 15.941 0 0 0 3.343-9.81c-.004-10.45-8.131-15.04-15.926-15.9zm9.627 24.69a1.185 1.185 0 0 1-.751-.26 1.234 1.234 0 0 1-.219-1.73 11.052 11.052 0 0 0 2.213-8.31 1.229 1.229 0 1 1 2.434-.34 13.513 13.513 0 0 1-2.7 10.16 1.21 1.21 0 0 1-.977.48zm1.9-13a1.137 1.137 0 0 1-.531.13 1.233 1.233 0 0 1-1.109-.7c-.085-.18-.177-.36-.274-.54a1.243 1.243 0 0 1 .487-1.68 1.223 1.223 0 0 1 1.668.49c.118.22.231.44.334.65a1.236 1.236 0 0 1-.576 1.65zm-10.717-6.74a20.792 20.792 0 0 0-7.175.32 1.184 1.184 0 0 1-.262.03 1.234 1.234 0 0 1-.259-2.44 23.007 23.007 0 0 1 8.029-.36 1.236 1.236 0 0 1-.334 2.45zm-21.852 8.47a1.235 1.235 0 1 1 1.23-1.23 1.23 1.23 0 0 1-1.227 1.23zm17.045 24.74h1.146a1.235 1.235 0 0 1 0 2.47h-1.146a1.235 1.235 0 0 1-.001-2.47z" transform="translate(-723 -2099.28)"/></svg>