<svg xmlns="http://www.w3.org/2000/svg" width="55.44" height="49.47" viewBox="0 0 55.44 49.47"><defs><style>.cls-1{fill:#fff;fill-rule:evenodd}</style></defs><path id="Фигура_9" data-name="Фигура 9" class="cls-1" d="M1086.55 2137.55l-1.39.37a4.592 4.592 0 0 1-2.07 7.7 4.4 4.4 0 0 1-1.2.16 4.605 4.605 0 0 1-4.46-5.8l-14.6 3.9a4.467 4.467 0 0 1 1.2 2.06 4.6 4.6 0 0 1-.46 3.5h1.1a1.15 1.15 0 1 1 0 2.3h-13.12a1.15 1.15 0 1 1 0-2.3h4.02a4.4 4.4 0 0 1-.46-1.12 4.471 4.471 0 0 1 0-2.38l-.6.16a1.032 1.032 0 0 1-.3.04 1.194 1.194 0 0 1-.58-.15 1.176 1.176 0 0 1-.54-.7l-3.29-12.24-1.31-4.89c0-.01-.01-.02-.01-.03l-3.4-12.65-.17-.65a.01.01 0 0 0-.01-.01l-2.39-8.89-.29.08a3.456 3.456 0 0 1-2.56 3.06l-3.35.89a3.35 3.35 0 0 1-.89.12 3.46 3.46 0 0 1-3.35-2.56c-.01 0-.01-.01-.01-.02a3.45 3.45 0 0 1 2.46-4.2l3.35-.9a3.8 3.8 0 0 1 .89-.11 3.476 3.476 0 0 1 2.86 1.5l1.41-.38a1.151 1.151 0 0 1 1.42.81l2.39 8.9 16.74-4.47a1.226 1.226 0 0 1 .88.12 1.157 1.157 0 0 1 .54.7l3.29 12.22 7.8-2.08a1.174 1.174 0 0 1 .88.11 1.216 1.216 0 0 1 .54.7l4.31 16.02 4.14-1.11a1.156 1.156 0 0 1 1.41.81 1.142 1.142 0 0 1-.82 1.41zm-46.67-32.11a1.167 1.167 0 0 0-1.12-.85 1.526 1.526 0 0 0-.3.03l-3.34.9a1.146 1.146 0 0 0-.82 1.41v.01a1.158 1.158 0 0 0 1.12.84.925.925 0 0 0 .29-.04l3.35-.89a1.154 1.154 0 0 0 .82-1.41zm17.46 42.29a2.311 2.311 0 0 0 2.22 1.71h.01a2.473 2.473 0 0 0 .6-.08 2.3 2.3 0 0 0-.6-4.53 2.331 2.331 0 0 0-.59.08h-.01a2.3 2.3 0 0 0-1.63 2.82zm-.97-34.77l-2.24.6 1.32 4.9.54-.47a1.169 1.169 0 0 1 1-.27l.7.15zm6.69-1.79l-4.46 1.19 1.8 6.71a1.131 1.131 0 0 1-.27 1.08 1.172 1.172 0 0 1-1.08.34l-1.96-.4-1.5 1.33a1.171 1.171 0 0 1-.77.29 1.257 1.257 0 0 1-.33-.05 1.189 1.189 0 0 1-.79-.81l-1.8-6.7-4.46 1.19 2.99 11.12 15.62-4.17zm-.88 14.53l1.32 4.91.53-.47a1.186 1.186 0 0 1 1-.27l.7.14-1.32-4.9zm13.39-3.57l-2.23.59 1.61 5.98a1.149 1.149 0 0 1-.82 1.41 1.032 1.032 0 0 1-.3.04 1.152 1.152 0 0 1-1.11-.85l-1.61-5.98-4.46 1.19 1.8 6.71a1.136 1.136 0 0 1-.28 1.08 1.153 1.153 0 0 1-1.07.34l-1.96-.4-1.5 1.32a1.171 1.171 0 0 1-.77.29.912.912 0 0 1-.33-.05 1.138 1.138 0 0 1-.79-.8l-1.8-6.7-8.93 2.38 1.01 3.76 3 11.14 2.23-.59-1.61-5.98a1.153 1.153 0 0 1 2.23-.59l1.61 5.97 20.09-5.36zm8.56 18.45a2.322 2.322 0 0 0-2.23-1.71 2.473 2.473 0 0 0-.6.08h-.01a2.3 2.3 0 0 0 .6 4.53 2.41 2.41 0 0 0 .6-.08 2.307 2.307 0 0 0 1.64-2.82zm-9.75-9.53a1.158 1.158 0 0 1 1.42.81l.12.43a1.157 1.157 0 0 1-.82 1.41 1.032 1.032 0 0 1-.3.04 1.164 1.164 0 0 1-1.12-.85l-.11-.44a1.137 1.137 0 0 1 .81-1.4zm-18.17 3.61a1.032 1.032 0 0 1-.3.04 1.141 1.141 0 0 1-1.11-.85l-.12-.43a1.155 1.155 0 0 1 2.23-.6l.12.44a1.136 1.136 0 0 1-.82 1.4zm11.83 14.78h.5a1.15 1.15 0 1 1 0 2.3h-.5a1.15 1.15 0 1 1 0-2.3z" transform="translate(-1031.97 -2102.28)"/></svg>