<svg xmlns="http://www.w3.org/2000/svg" width="46.91" height="59.57" viewBox="0 0 46.91 59.57"><defs><style>.cls-1{fill:#c9cb20;fill-rule:evenodd}</style></defs><path id="Фигура_10" data-name="Фигура 10" class="cls-1" d="M1369.56 2153.4h-9.85a.94.94 0 0 1 0-1.88h4.69v-18.67l-3.75-.79v5.92a5.057 5.057 0 0 1-.13 1.17 2.212 2.212 0 0 1 1.41 2.05v2.51a2.2 2.2 0 0 1-2.19 2.2h-6.37a2.2 2.2 0 0 1-2.19-2.2v-2.51a2.189 2.189 0 0 1 2.19-2.19h5.25a3.565 3.565 0 0 0 .15-1.03v-6.32l-2.01-.43-2.9 4.31a5.16 5.16 0 0 1-8.55 0l-2.9-4.31-2.02.43v6.32a3.549 3.549 0 0 0 3.57 3.52h4.37a.94.94 0 1 1 0 1.88h-4.37a5.44 5.44 0 0 1-5.45-5.4v-5.92l-3.75.79v18.67h21.17a.94.94 0 1 1 0 1.88h-26.32a3.47 3.47 0 0 1-3.48-3.45v-12.82a5.437 5.437 0 0 1 4.31-5.28l3.17-.67a.06.06 0 0 1 .04-.01l5.59-1.19h.04l2.61-.56v-.73a9.969 9.969 0 0 1-1.59-.95 9.373 9.373 0 0 1-3.43-4.84 59.25 59.25 0 0 1-2.26-11.65h-.12a2.928 2.928 0 0 1-2.09-5.01l1.99-1.97a9.4 9.4 0 0 1 9.37-9.01h.62a2.365 2.365 0 0 1 2.16-1.41h6.08a2.368 2.368 0 0 1 2.17 1.41h.61a9.4 9.4 0 0 1 9.37 9.01l1.99 1.97a2.9 2.9 0 0 1 .87 2.08 2.938 2.938 0 0 1-2.95 2.93h-.13a57.828 57.828 0 0 1-2.26 11.65 9.356 9.356 0 0 1-3.43 4.84 9.157 9.157 0 0 1-1.59.95v.73l2.62.55a.048.048 0 0 0 .04.01l5.59 1.19a.037.037 0 0 1 .03.01l3.18.67a5.438 5.438 0 0 1 4.3 5.28v12.82a3.468 3.468 0 0 1-3.47 3.45zm-36.67-20.15l-2.07.44a3.545 3.545 0 0 0-2.81 3.44v12.82a1.586 1.586 0 0 0 1.6 1.57h3.28v-18.27zm22.51-36.11h-.25l.95 6.58h6.75a7.526 7.526 0 0 0-7.45-6.58zm8.3 12.23h.98a1.054 1.054 0 0 0 .77-1.8l-2-1.97h-11.37a.94.94 0 0 1 0-1.88h2.12l-1.06-7.36a.048.048 0 0 0-.01-.04l-.02-.19a.487.487 0 0 0-.49-.4h-6.08a.477.477 0 0 0-.48.4l-.03.19v.03l-1.07 7.37h3.37a.94.94 0 0 1 0 1.88h-8.71a.94.94 0 0 1 0-1.88h3.45l.95-6.58h-.26a7.52 7.52 0 0 0-7.5 7.52.97.97 0 0 1-.28.68l-2.26 2.23a1.054 1.054 0 0 0 .77 1.8h29.21zm-3.2 12.98a56.616 56.616 0 0 0 2.17-11.1h-12.15v6.43h.33a.94.94 0 0 1 0 1.88h-2.53a.94.94 0 0 1 0-1.88h.32v-6.43h-12.14a55.188 55.188 0 0 0 2.17 11.1 7.555 7.555 0 0 0 7.3 5.37h1.74a.94.94 0 0 1 0 1.88h-1.74a9.46 9.46 0 0 1-2.2-.26v.55l3.09 4.6a3.3 3.3 0 0 0 5.45 0l3.09-4.6v-.55a9.524 9.524 0 0 1-2.2.26h-1.74a.94.94 0 0 1 0-1.88h1.74a7.573 7.573 0 0 0 7.3-5.37zm-.45 18.85a.312.312 0 0 0-.31-.31h-6.37a.312.312 0 0 0-.31.31v2.51a.312.312 0 0 0 .31.31h6.37a.312.312 0 0 0 .31-.31v-2.51zm11.11-4.07a3.554 3.554 0 0 0-2.82-3.44l-2.06-.44v18.27h3.28a1.586 1.586 0 0 0 1.6-1.57v-12.82zm-22.55-11.3a3.436 3.436 0 0 1-3.1-1.9l-.57-1.12a.941.941 0 0 1 1.68-.85l.56 1.12a1.594 1.594 0 0 0 1.43.87h1.94a1.583 1.583 0 0 0 1.43-.87l.57-1.12a.937.937 0 1 1 1.67.85l-.56 1.12a3.462 3.462 0 0 1-3.11 1.9h-1.94zm3.68-11.28a.939.939 0 0 1 .94-.94h1.42a.94.94 0 1 1 0 1.88h-1.42a.945.945 0 0 1-.94-.94zm-6.35.94h-1.43a.94.94 0 0 1 0-1.88h1.43a.94.94 0 1 1 0 1.88z" transform="translate(-1326.12 -2093.84)"/></svg>